<svg xmlns="http://www.w3.org/2000/svg" viewBox="0 0 960 540" width="960" height="540">
  <rect width="960" height="540" fill="#f8f4ea"/>
  <rect x="32" y="32" width="896" height="476" fill="#fff" stroke="#20242b" stroke-width="2"/>
  <text x="56" y="76" font-family="IBM Plex Mono, monospace" font-size="28" fill="#20242b">COMPOSITION AZTEC SHEET</text>
  <text x="56" y="110" font-family="IBM Plex Mono, monospace" font-size="16" fill="#5a6472">䷁ | ⠁ | 01/0101 | artifact://demo/composition</text>
  <text x="56" y="156" font-family="IBM Plex Sans, sans-serif" font-size="18" fill="#39424e">This updated sheet is native to the current Symbolic Web stack.</text>
  <text x="56" y="186" font-family="IBM Plex Sans, sans-serif" font-size="18" fill="#39424e">Use composition_aztec_viewer.html for the live witness surface and transport demo.</text>
  <g transform="translate(80 230)">
    <rect x="0" y="0" width="180" height="180" fill="#ffffff" stroke="#111111" stroke-width="3"/>
    <rect x="18" y="18" width="12" height="12" fill="#111111"/><rect x="42" y="18" width="12" height="12" fill="#111111"/><rect x="66" y="18" width="12" height="12" fill="#111111"/><rect x="90" y="18" width="12" height="12" fill="#111111"/>
    <rect x="18" y="42" width="12" height="12" fill="#111111"/><rect x="66" y="42" width="12" height="12" fill="#111111"/><rect x="114" y="42" width="12" height="12" fill="#111111"/>
    <rect x="18" y="66" width="12" height="12" fill="#111111"/><rect x="42" y="66" width="12" height="12" fill="#111111"/><rect x="90" y="66" width="12" height="12" fill="#111111"/><rect x="138" y="66" width="12" height="12" fill="#111111"/>
    <rect x="42" y="90" width="12" height="12" fill="#111111"/><rect x="66" y="90" width="12" height="12" fill="#111111"/><rect x="114" y="90" width="12" height="12" fill="#111111"/>
    <rect x="18" y="114" width="12" height="12" fill="#111111"/><rect x="66" y="114" width="12" height="12" fill="#111111"/><rect x="90" y="114" width="12" height="12" fill="#111111"/><rect x="138" y="114" width="12" height="12" fill="#111111"/>
    <rect x="18" y="138" width="12" height="12" fill="#111111"/><rect x="42" y="138" width="12" height="12" fill="#111111"/><rect x="90" y="138" width="12" height="12" fill="#111111"/><rect x="114" y="138" width="12" height="12" fill="#111111"/>
  </g>
  <text x="300" y="270" font-family="IBM Plex Mono, monospace" font-size="18" fill="#20242b">Witness surface</text>
  <text x="300" y="302" font-family="IBM Plex Sans, sans-serif" font-size="17" fill="#4f5968">Deterministic SVG/PNG embodiment</text>
  <text x="300" y="338" font-family="IBM Plex Mono, monospace" font-size="18" fill="#20242b">Transport surface</text>
  <text x="300" y="370" font-family="IBM Plex Sans, sans-serif" font-size="17" fill="#4f5968">Standard Aztec barcode demo via Barcode Detector</text>
</svg>
